# xmcd CD database file generated by OrangeCD 5.2
#
# Track frame offsets:
#	150
#	12682
#	28580
#	46818
#	66810
#	83675
#	97827
#	114990
#	130505
#	146025
#	160811
#	181577
#
# Disc length: 2626 seconds
#
# Revision: 5
# Processed by: cddbd v1.5.1PL0 Copyright (c) Steve Scherf et al.
# Submitted via: OrangeCD 5.2
#
DISCID=8c0a400c
DTITLE=Neil Wilde - What Can I Say!!! - Neil Wilde Way [CD1]
DYEAR=2004
DGENRE=Blues
TTITLE0=Rock 'n Roll Heaven
TTITLE1=Miss Elisabeth
TTITLE2=My Shoes
TTITLE3=How Lucky
TTITLE4=Run Like A Rabbit
TTITLE5=Hold Me Close Tonight
TTITLE6=Dear Linda
TTITLE7=Second Hand Car
TTITLE8=You Can't Fool Me
TTITLE9=April Boogie
TTITLE10=Family Song
TTITLE11=Do You Love Me For My Money
EXTD=
EXTT0=
EXTT1=
EXTT2=
EXTT3=
EXTT4=
EXTT5=
EXTT6=
EXTT7=
EXTT8=
EXTT9=
EXTT10=
EXTT11=
PLAYORDER=
